<?xml version="1.0" encoding="UTF-8"?>
<svg id="Capa_1" data-name="Capa 1" xmlns="http://www.w3.org/2000/svg" viewBox="0 0 460.9 486.33">
  <path d="M62.87,93.7c-6.1-.38-12.53,6.45-17.21,10.96-4.89,4.71-7.11,10.89-11.07,16.42-2.9,4.06-9.17,6.81-11.62,11.15-2.41,4.27-2.61,9.27-4.7,13.67-2.07,4.38-3.64,8.88-5.5,13.3-1.84,4.39-3.96,11.19-.81,13.73,2.86,2.31,11.53.17,13.34-4.1,1.37-3.22,1.34-10.01,1.34-10.01.36.01,6.08,7.45,7.66,11.89,1.59,4.45,1.78,11.24,1.85,14.38.03,1.18-.89,3.23-1.41,4.92-1.33,4.33.4,11.06,3.53,12.5,1.32.61,3.28-.76,3.51-.67,1.21.5,5.48,8.44,7.22,13.16,1.42,3.84,3.06,5.94,6.17,3.59,3.04-2.3,2.67-6.49,1.31-10.42-1.35-3.89-1.51-8.23-2.85-12.14-1.33-3.9-.24-9.4-.23-12.16.01-2.91-1.38-8.38.02-12.51,1.4-4.12,4.84-7.78,6.23-11.93,1.38-4.13,4.41-8.75,4.98-12.41.12-.79,2.05-2.38,2.26-3.17,1.18-4.39.24-12.2,1.85-18,1.4-5.06.64-10.68,1.53-15.46.17-.92.24-1.75.28-2.74.29-6.85-1.1-13.55-7.69-13.96ZM54.76,128.12c-1.18,4.64-2.42,9.52-3.89,14.36-1.46,4.79-.84,10.03-2.37,14.65-.76,2.3-3.77,5.7-3.77,5.7-.36,0-6.26-12.06-8.42-18.59-.34-1.04-1.85-2.87-1.88-3.24-.23-2.33,9.19-8.49,12.71-12.96,3.67-4.66,9.22-11.34,9.22-11.34.24.15-.42,6.81-1.59,11.42ZM162.53,51.04c-1.01,5.48.81,11.08.18,16.51-.63,5.5-4.84,10.9-5.07,16.33-.24,5.51.35,11.03.43,16.45.06,4.02-2.82,7.99-7.13,9.65-4.45,1.71-5.28.07-5.43-3.84-.17-4.43-2.7-8.73-2.67-13.21.03-4.44,4-8.92,4.29-13.4.29-4.44-4.84-8.96-4.37-13.44.46-4.44,5.38-8.73,6.1-13.2.66-4.09,4.19-9.19,8.72-9.6,5.27-.48,5.69,3.76,4.95,7.76ZM235.44,38.08c-1.81,6.51-4.57,12.84-6.27,19.37-1.17,4.48-5.1,8.47-6.2,12.96-1.1,4.49.58,9.47-.5,13.97-1.08,4.49-2.3,8.96-3.33,13.46-.36,1.58-3.33,2.72-4.33,4.06-3.11,4.15-10.7,10.54-14.4,5.64-2.68-3.55-4.01-7.87-6.71-11.45-2.68-3.56-8.98-10.48-8.98-10.48-.81.17.27,8.06.04,16.06-.24,8-.18,8-.39,16-.11,4.06-3.88,8.45-8.15,10.07-4.19,1.59-9.56-.35-9.59-4.31-.07-8.35,1.96-8.41,1.95-16.76,0-8.36-.68-8.34-.67-16.7.01-8.36,5.18-10.9,3.55-16.82-.18-.65-2.29-1.68-2.29-2.84,0-1.04.98-2.13,1.26-3.22.15-.61-2.17-1.7-2.14-2.27.28-5,11.18-17.08,16.09-10.36,3.48,4.76,6.9,9.56,10.36,14.28,3.48,4.75,11.67,13.84,11.67,13.84.63-.14,4.61-14.23,6.25-21.36,1.42-6.19-2.01-13.11-.55-19.3.73-3.1,6.37-5.45,7.14-8.53.34-1.38.53-5.33.26-5.82-1.88-3.44,1.09-6.63,5.76-9.72,4.1-2.71,5.49-3.87,7.3-.44,3.24,6.13,4.84,13.56,2.87,20.67ZM264.35,71.38c-1.57,1.12,1.86,6.34-2.81,7.15-2.84.49-4.96-.96-6.13-2.4-2.95-3.62-3.06-9.52-.68-14.19.37-.72,7.61-7.16,7.71-7.25.69-.66,7.61-7.95,9.09-8.25,1.23-.25,6.66-.75,6.66-.75,0,0,2.37,1.62,2.41,1.67.64.91.94,4.17,6.08,3.34,5.49-.88,8.58-3.34,9.25-7.17.94-5.35-1.61-6.99-8.65-8.15-7.09-1.16-16.64-3.84-23.5-.7-6.14,2.81-7.2,10.08-11.47,14.12-4.44,4.2-12.41,6.64-14.92,11.56-2.18,4.27-1.13,9.91-1.65,14.5-.58,5.21-2.11,11.42,1.51,14.87,4.01,3.83,11.53,1.9,18.99.2,6.43-1.46,12.64-2.9,17.87-6.53,3.99-2.77,5.49-5.6,3.02-8.85-2.17-2.84-8.82-6-12.78-3.18ZM343.02,77.11c-8.96-1.5-21.34-5.76-25.98-4.04-2.1.78-8.46,6.74-8.46,6.74.12.27,6.78-1.21,10.57-1.39,5.21-.25,13.58,2.87,13.32,6.75-.23,3.39-8.97,4.39-14.2,4.66-7.54.38-18.7-.49-22.71,1.49-1.22.6-2.18,5.37-3.63,7.1-2.04,2.45-7.88,9.09-7.88,9.09.22.46,11.98-1.18,17.11-.78,4.9.38,9.83,3.27,8.27,7-1.41,3.35-8.61,4.55-13.48,4.21-4.43-.3-8.83,2.15-13.27,2.21-4.38.06-9.13-2.44-13.54-2.01-4.92.47-6.25-.68-5.15-4.11.48-1.51,2.86-8.78,4.39-10.82,3.57-4.75,7.81-9.13,11.55-13.8,3.8-4.75,4.91-11.11,8.86-15.8,3.95-4.69,13.29-6.12,17.44-10.68,2.92-3.21,6.04-5.82,11.41-4.58.72.17,11.99,3.32,16.93,4.05,4.94.73,9.98.38,14.92,1.25,5.28.93,8.58,2.03,6.67,5.7-1.65,3.17-7.89,8.64-13.14,7.76ZM392.83,120.33c-1.5-4.78-9-6.94-14.73-8.61-4.42-1.29-12.54-2.64-12.54-2.64,0-.08,9.94-1.06,15.62-1.5,5.2-.4,11.63-4.46,11.66-8.03.03-3.82-7.33-8.3-12.53-7.89-5.12.4-10.01,1.52-15.07,2.07-5.05.55-10.33.37-15.32,1.07-4.79.67-9.05,3.77-13.57,5.18-6.81,2.13-13.26,8.99-8.47,13.12,2.63,2.27,8.6,2.47,12.34,3.65,4.17,1.31,8.42,2.46,12.79,3.55,3.42.86,9.68,4.5,9.68,4.5,0,.02-.25-.8-.78-.66-5.98,1.52-12.39,1.96-18.32,3.45-6.21,1.56-12.07,3.89-18.19,5.43-6.15,1.55-12.43,2.66-18.49,4.21-4.68,1.19-8.39,5.58-8.04,9.13.36,3.71,4.7,5.13,9.18,3.98,4.66-1.2,9.72-1.39,14.43-2.59,4.69-1.2,10-.98,14.74-2.18,4.72-1.19,8.82-4.27,13.61-5.48,4.77-1.2,10.28-.78,15.1-1.97,4.81-1.19,8.8-4.5,13.66-5.69,7.18-1.76,15.23-5.79,13.26-12.11ZM382.24,206.75c-4.57.14-7.31-.5-5.57-5.24,1.53-4.19.98-9.2,2.56-13.38,1.57-4.17,2.02-8.82,3.66-12.98,1.63-4.15,6.26-7.06,7.99-11.18,1.73-4.11,4.75-12.97,4.75-12.97-.19-.19-8.53,4.11-12.36,6.34-3.85,2.23-6.33,6.18-10,8.57-3.68,2.4-7.24,4.86-10.73,7.43-3.51,2.58-10.67,5-14.53,2.96-3.36-1.78-2.92-8.77.48-11.43,4.32-3.39,8.83-6.65,13.44-9.8,4.59-3.14,8.7-6.97,13.57-9.86,4.85-2.88,12.32-2.3,17.45-4.87,5.11-2.56,8.96-6.96,14.35-9.23,6.75-2.85,15.26-.12,12.25,5.8-2.15,4.23-1.23,9.96-3.31,14.2-2.09,4.26-7.07,7.12-9.04,11.41-1.98,4.31-.43,10.24-2.35,14.56-1.93,4.33-6.89,7.28-8.71,11.64-1.82,4.38-3.04,9.02-4.79,13.41-1.43,3.57-5.22,4.52-9.11,4.64ZM138.72,118.56c-4.34-3.78-8.81-7.88-13.86-10.47-5.1-2.61-14.49-5.19-14.49-5.19-.09-.48,11.27-3.73,15.08-7.53,3.61-3.61,5.78-6.79,6.73-12.3.53-3.06,3.08-8.29,2.78-10.98-.31-2.86-4.25-6.51-6.66-6.24-5.29.61-9.27-2.09-14.68-.52-5.15,1.5-9.59,2.81-14.74,5.16-4.89,2.23-11.47,12.01-16.2,14.99-3.15,1.99-7.33,8.41-7.05,12.12.31,4.08,5.11,4.56,8.13,2.62,1.83-1.18,3.25-2.95,3.45-2.83.69.42-1.86,12.76-2.13,15.14-.3,2.64.43,8.4.32,10.96-.22,4.88,2.44,9.73,2.28,14.6-.1,3.09.98,3.48,2.9,4.53,1.99,1.09,3.21,1.55,4.93-1.56,1.86-3.35,1.61-6.24.94-9.4-.02-.11-.7-1.89-.64-2.83.11-1.88,1.43-3.74,1.55-5.62.08-1.21.88-3.05,1.05-3.21,1.29-1.22,12.29,1.04,17.63,3.59,5.28,2.51,10.14,6.33,14.69,10.23,2.13,1.83,4.14-1.43,5.95-4.89,2.05-3.93,4.21-8.51,2.05-10.39ZM155.1,267.85c-4.36-1.87-11.16-2.7-16.63-3.3-5.81-.63-11.91-.86-17.99-1.26-4.96-.33-10.09,1.96-15.23,1.76-5.02-.2-10.08-1.25-15.24-1.34-5.04-.09-10.23-1.35-15.4-1.34-5.7.02-12.52,3.95-15.03,7.76-2.43,3.67.51,9.31,6.28,9.36,6.12.06,14.01-1.8,19.91-1.63-4.96,3.17-9.49,6.82-14.24,10.25-1.98,1.43-3.54,3.31-6.26,3.04-2.34-.23-4.42-1.95-6.85-1.91-6.43.09-16.01,3.95-17.41,9.83-.37,1.55,0,2.33-1.42,3.44-3,2.35-6.39,4.4-9.76,6.4-4.67,2.79-6.05,8.68-1.54,11.08,4.31,2.3,12.16.01,16.84-2.92,4.03-2.53,6.91-6.31,10.94-8.85,2.24-1.42,4.62-2.69,6.99-3.95,1.82-.97,4.32-3.01,6.46-3.32,4.09-.61,8.5,3.15,12.75,2.82,3.95-.3,6.96-5.04,10.86-5.44,7.57-.78,16.13,2.42,23.63,1.24,6.87-1.08,13.73-2.91,20.48-4.67,3.92-1.02,7.51-3.25,10.92-5.16,3.53-1.98,7.28-4.04,9.5-6.89,4.44-5.69,2.87-12.69-2.56-15.02ZM124.95,281.65c-7.08,1.28-14.27,1.97-21.46,2.88-3.53.44-8.63,3.35-8.63,3.35-.06-.15,7.15-9.08,10.43-9.92.47-.12,2.23.85,2.97.91,6.48.55,12.67,2.43,18.86,3.22,1.64.21,5.1-.47,5.1-.47,0,.03-4.95-.38-7.27.03ZM100.94,370.78c-3.86,2.91-11.61,5.69-17.08,4.54-5.44-1.14-10.96-2.19-16.44-3.41-5.54-1.24-10.02-6.33-15.28-7.86-7-2.03-8.9-4.94-3.81-9.4,3.71-3.25,9.01-6.51,13.69-9.36,4-2.43,7.1-5.73,11.02-8.22,3.92-2.48,8.56-4.26,12.4-6.8,3.84-2.55,6.57-6.15,10.33-8.75,3.76-2.6,9.73-3.07,13.4-5.74,3.67-2.66,7.15-5.5,10.74-8.22,4.37-3.31,11.11-5.51,15.52-3.8,4.33,1.67,1.53,4.29-2.71,7.63-5.34,4.21-3.4,5.96-8.86,10.1-5.46,4.14-7.17,2.59-12.76,6.63-5.59,4.05-5.32,4.3-11.04,8.26-5.72,3.96-10.15,9.17-16.05,13.01-2.72,1.77-6.75,2.32-9.52,4.06-.03.02,1.34.74,1.38.75,3.19.75,3.52-.77,6.72-.08,5.4,1.17,10.6,3.39,16.03,4.45,7.51,1.47,7.27,8.46,2.35,12.18ZM142.69,378.67c-5.8,1.26-12.91-.62-11.47-4.87,1.37-4.04,3.34-8.03,4.91-12.1,1.54-3.99,5.16-7.42,6.87-11.44,1.69-3.95,5.65-11.72,5.65-11.72-.09-.06-6.75,7.53-10.69,10.91-3.95,3.38-8.51,6.28-12.48,9.65-4.31,3.65-14.32,6.4-17.82,4.09-3.92-2.58.25-9.21,4.6-12.77,3.71-3.04,6.74-6.63,10.43-9.68,3.68-3.04,7.9-5.67,11.56-8.73,3.65-3.05,9.37-4.41,12.99-7.48,3.61-3.07,7.76-5.64,11.34-8.73,3.57-3.08,3.71-9.02,7.26-12.09,3.51-3.04,10.19-6.32,13.94-5.67,3.57.62,5.29,6.41,3.51,9.91-2.06,4.05-6.27,7.24-8.2,11.26-1.97,4.09-1.46,9.02-3.25,13.1-1.83,4.15-6.41,7.37-8.08,11.49-1.69,4.19-2.71,8.59-4.2,12.76-1.51,4.25.04,9.22-1.21,13.44-1.3,4.39-9.25,7.29-15.65,8.67ZM273.11,324.08c-.95,3.79-4.44,6.17-9.45,8.14-5.21,2.05-8.37,7.79-13.7,9.77-5.32,1.97-12.08,1.33-17.49,3.19-5.4,1.86-12.12,5.13-14.72,7.32-2.25,1.9-5.48,7.41-7.67,11.61-2.19,4.18-7.09,7.37-9.41,11.53-2.31,4.14-.55,9.82-2.95,13.95-2.39,4.12-4.79,8.26-7.3,12.36-2.5,4.09-7.33,7.27-9.95,11.32-2.81,4.34-10.3,9.35-15.33,8.61-5.79-.85-3.1-5.79-.25-9.99,2.95-4.35,6.58-8.42,9.39-12.8,2.81-4.4,2.67-9.99,5.36-14.41,2.7-4.44,5.01-9.01,7.57-13.48,2.57-4.48,7.11-11.58,7.11-11.58-.41-.45-14.4,2.59-22.25,4.6-8.23,2.1-7.93-1.57-5.75-6.37,1.63-3.6,4.21-6.15,9.61-7.59,5.05-1.34,8.17-6.81,13.12-8.22,4.96-1.42,12.86-1.16,15.17-3.07.8-.66,4.4-1.38,5.13-2.87,2.21-4.57,4.72-10.97,10.26-11.91,4.9-.84,10.53,4.26,8.51,8.77-.14.31-2.9-.12-2.9-.12.27.27,10.01-1.38,14.52-3.02,4.51-1.64,8.95-3.38,13.39-5.09,4.44-1.71,7.65-5.6,12.01-7.38,7.2-2.93,9.23,1.73,7.97,6.74ZM259.81,409.85c-5.76,2.24-9.73,3.23-9.67-.8.07-4.26-.2-8.54-.42-12.71-.22-4.26-.36-8.55-.87-12.71-.52-4.25-4.15-11.39-4.15-11.39-.49-.15-3.63,6.24-6.84,9.16-3.21,2.93-6.71,5.65-9.99,8.54-4.34,3.84-13.37,5.73-18.73,4.42-4.78-1.16-5.81-6.86-1.45-10.53,4.44-3.73,8.44-7.77,12.78-11.56,4.33-3.77,11.22-5.69,15.49-9.51,4.25-3.8,8.82-7.32,13.08-11.13,2.8-2.51,6.19-3.95,9.57-4.16,3.77-.23,3.54.09,4.21,2.44,1.17,4.07.99,8.27,1.89,12.47.88,4.12,7.21,7.69,7.86,11.91.64,4.14-.56,8.52-.21,12.76.35,4.16,1.38,8.4,1.46,12.65.07,4.09-7.55,7.62-14.03,10.14ZM341.06,291.95c-.29,4.6.11,9.24-.13,13.82-.25,4.61-1.09,9.2-1.3,13.78-.21,4.61,4.09,9.29,3.96,13.87-.13,4.61-.03,9.19-.11,13.77-.08,4.61-5.36,9.23-5.42,13.82-.06,4.74-.73,12.58-5.76,14.66-3.46,1.43-8.28-.81-9.65-2.33-.21-.24-7.01-9.61-10.32-13.92-3.32-4.31-8.38-11.42-8.38-11.42-.24.07-1.87,8.42-2.06,13.63-.19,5.15,2.83,10.44,2.47,15.65-.33,4.73-7.26,11.4-12.52,13.22-5.55,1.92-11.55-2.19-11.07-6.78.51-4.92,3.25-9.65,3.56-14.52.32-4.93-.35-9.85-.21-14.72.14-4.94,2.7-9.82,2.64-14.69-.05-4.94.95-9.91.72-14.78-.22-4.62-1.33-11.94,3.57-15.15,1.18-.78,3.9.15,4.82-.19,3.09-1.17,5.84-.91,7.66,1.62,3.21,4.49,7.75,8.3,11.08,12.75,3.33,4.45,10.01,11.91,10.01,11.91.26-.07,2.04-6.96,2.35-11.27.3-4.28.03-8.58.37-12.88.34-4.27,1.39-8.5,1.76-12.8.37-4.27.68-8.54,1.07-12.83.45-4.93,2.8-9.84,7.38-12.13,4.18-2.09,4.82-.69,4.49,4.12-.32,4.6-.69,9.21-.98,13.78ZM408.58,271.03c-1.01-4.81-6.09-10.2-10.62-12.49-4.14-2.09-13.45,2.42-15.9,2.1-1.11-.15-7.78-3.51-11.2-.66-3.71,3.08-3.69,9.54-6.77,13.38-3.08,3.83-7.51,6.79-9.77,10.94-2.41,4.43-2.68,9.24-3.84,13.55-1.36,5.06-4.44,9.71-3.58,13.82,1.04,4.96,4.06,10.35,9.29,12.48,4.48,1.83,11.73,1.27,18.1-.78,4.17-1.34,8.43-3.64,11.8-6.47,3.15-2.64,4.63-6.74,7.21-9.96,2.88-3.59,3.32-8.01,5.29-11.77,2.12-4.05,3.52-7.61,4.4-11.53,1-4.44,6.41-8.75,5.61-12.6ZM381.82,296.63c-1.34,2.1-11.61,10.11-13.06,9.05-2.38-1.74-2.08-5.58-2.21-8.43-.17-3.71-.2-8.72,1.87-12.7.89-1.7,10.78-6.41,12.75-6.85.28-.06,1.7-.91,2.58-.53,1.36.58,3.5-.23,4.57,1.01,1.82,2.09,2.95,6.02,2.63,9.37-.32,3.3-7.37,6.32-9.13,9.08ZM191.43,308.66c2.22.09,3.74-1.71,3.59-3.52-.02-.2-.03-.65-.04-.92.36-.2.72-.44,1-.72.99-.96,1.32-2.28,1.1-3.55.2-.78.15-1.61-.15-2.41-.92-2.5-3.99-3.96-6.84-3.84-2.11.09-3.75,1.56-3.57,3.49.04.49.21,1.03.47,1.54-.11.86.14,1.8.66,2.6-.27,1.13-.34,2.33-.25,3.48.14,1.83,1.75,3.75,4.03,3.83Z" style="fill: #000; stroke-width: 0px;"/>
  <g>
    <path d="M150.99,462.59c-.7-.19-.97-.78-.87-1.76l.19-2.03h.02s-2.79-1.02-2.79-1.02l-1,2.15c-.42.89-.94,1.24-1.64,1.05l-.28-.06c-.4-.11-.54-.38-.42-.8.03-.1.06-.22.14-.35l.45-.95,1.63-3.67c.04-.07.09-.17.14-.26.32-.55.65-1.13.96-1.71l1.03-2.1.88-1.78.4-.92c.26-.62.63-.88,1.1-.79l.88.16s.08.02.1.03c.02,0,.06.02.08.02l.61.21c.47.17.68.59.6,1.24-.03.34-.08.67-.1,1-.05.72-.1,1.45-.15,2.19l-.2,2.05c-.05.67-.11,1.34-.17,2.04-.02.7-.04,1.4-.05,2.13l-.13,1.96c0,.09,0,.17-.03.25l-.13.93c-.03.1-.03.21-.06.28-.14.5-.43.7-.87.6l-.32-.09ZM150.55,455.81h-.04c.05-.73.1-1.46.17-2.18l.2-2.37c-.32.71-.63,1.37-.97,2.05l-1.1,2.15h-.04s1.79.35,1.79.35Z" style="fill: #000; stroke-width: 0px;"/>
    <path d="M168.07,464.17c.09-.68.15-1.38.22-2.06l.3-2.05.37-2.06.35-2.06.56-3.01c.13-.67.43-.98.92-.9l.59.13c.53.1.72.47.62,1.14,0,.04-.01.08-.02.12l-.22,1.14-.25,2.27s-.01.08-.02.14c0,.04-.02.1-.03.16l-.47,2.19-.29,2.13-.44,2.53,2.01.13s.06-.01.08,0l1.24.26c.61.14.83.57.71,1.37,0,.04-.02.1-.03.16l-.07.3c-.13.67-.45.96-.92.88l-.75-.16c-.56-.03-1.12-.07-1.66-.1l-1.59-.27-1.52-.34c.11-.7.21-1.35.32-2.05Z" style="fill: #000; stroke-width: 0px;"/>
    <path d="M179.89,466.89l.09-1.01.16-2.04.22-1.96.35-2.04c.08-.7.17-1.4.27-2.07l.09-2.09c0-.06,0-.15,0-.21,0-.06.03-.12.04-.2l.12-.73c.11-.61.41-.91.87-.88l.82.07c.47.05.67.39.6,1.02l-.14,1.05-.18,2.02s0,.08-.02.14l-.3,1.99-.15,1.9-.3,2.13-.34,3.28c-.07.66-.36.96-.81.91l-.8-.13c-.49-.08-.68-.45-.61-1.13Z" style="fill: #000; stroke-width: 0px;"/>
    <path d="M190.82,468.87c-.5-.03-.72-.4-.67-1.12l.05-1.12.09-2.42c0-.06,0-.1,0-.14l.27-2.35.04-2.28s0-.08,0-.12c0-.02,0-.08,0-.12l.22-2.14h.04s-1.53-.09-1.53-.09c-.6-.04-.89-.45-.83-1.24v-.17c.11-.85.44-1.24,1.04-1.24h.87s.06.02.1.02l1.58.25,1.58-.11s.08,0,.12,0c.04,0,.1,0,.15,0l.65.15c.55.1.82.53.81,1.28v.15c0,.06,0,.12,0,.19-.05.72-.36,1.08-.92,1.1l-1.46.03h.04s-.28,2.16-.28,2.16v2.16c0,.06,0,.14,0,.21,0,.04,0,.08,0,.12l-.23,2.37-.22,2.23-.04,1.2c-.05.7-.34,1.06-.88,1.04h-.62Z" style="fill: #000; stroke-width: 0px;"/>
    <path d="M203.55,469.34c-.5,0-.74-.36-.74-1.08v-1.12s-.06-2.42-.06-2.42c0-.06,0-.1,0-.14l.14-2.36-.09-2.28s0-.08,0-.12c0-.02,0-.08,0-.12l.1-2.15h.04s-1.53-.01-1.53-.01c-.6,0-.91-.4-.9-1.19v-.17c.05-.85.36-1.26.96-1.3l.87-.03s.06,0,.1,0l1.59.16,1.57-.2s.08,0,.12,0c.04,0,.1,0,.14,0l.66.11c.56.07.85.48.88,1.23l.02.14c0,.06,0,.12,0,.19,0,.72-.3,1.09-.86,1.15l-1.45.11h.04s-.16,2.17-.16,2.17l.13,2.15c0,.06,0,.14,0,.21,0,.04,0,.08,0,.13l-.1,2.38-.1,2.24.03,1.2c0,.7-.28,1.07-.82,1.09l-.62.04Z" style="fill: #000; stroke-width: 0px;"/>
    <path d="M213.18,467.22c-.05-.68-.13-1.38-.2-2.06l-.12-2.07-.06-2.09-.08-2.09-.06-3.07c-.01-.68.22-1.05.72-1.07h.6c.54,0,.8.33.83,1.01,0,.04,0,.08,0,.12v1.16s.22,2.27.22,2.27c0,.04,0,.08,0,.14v.17s-.01,2.24-.01,2.24l.14,2.15.08,2.57,2-.28s.06-.02.08-.02h1.26c.62.01.93.39.97,1.2,0,.04,0,.1,0,.17v.31c0,.68-.25,1.03-.73,1.05h-.77c-.55.08-1.11.15-1.65.24l-1.61.05-1.56-.03c-.03-.7-.06-1.36-.1-2.07Z" style="fill: #000; stroke-width: 0px;"/>
    <path d="M225.37,467.54l-.09-1.1-.22-1.98-.12-2.11-.3-1.8c0-.06-.01-.12-.02-.19l-.16-2c-.08-.76-.15-1.52-.21-2.29l-.14-1.01c-.06-.58.12-.87.58-.93l.95-.09c.51-.09,1.02-.18,1.53-.28h.08s.06-.01.08-.02l1.43-.02.87-.08c.58-.06.9.31,1,1.11v.15c.09.8-.18,1.25-.77,1.3l-1.28.15-1.98.15.32,3.26h-.04s1.59-.13,1.59-.13c.04,0,.08.01.15,0l.73.03c.57.03.87.41.97,1.17l.03.29c.08.76-.17,1.18-.73,1.24l-.85.06-1.71.21h.04s.27,2.93.27,2.93h-.02s2.17-.11,2.17-.11l1.11-.13c.64-.06.99.34,1.08,1.23l.02.23c.07.74-.14,1.12-.66,1.17l-.85.04-1.38.34c-.06.03-.1.03-.16.04l-1.66.06-.81.06c-.51.05-.79-.26-.86-.96Z" style="fill: #000; stroke-width: 0px;"/>
    <path d="M247.6,460.81c.65-.13.99.31,1.4.83.57.75,1.01.77,1.75.65.8-.22,1.01-.68.83-1.83l-.02-.1c-.07-.36-.19-.55-.39-.68-.64-.38-.99-.42-1.67-.48-.36,0-.94-.09-1.43-.33-.66-.27-1.1-.44-1.62-1.08-.41-.58-.72-1.13-.92-2.12-.21-1.12-.44-2.8.19-3.6l.12-.15c.27-.35.52-.67.85-.94.43-.29.9-.47,1.28-.6.1-.04.2-.08.27-.12.06-.01.12-.04.2-.06.92-.18,2.45.43,3.14,1.54.31.38.72,1.11.82,1.65.13.65-.18,1.05-.73,1.15-.04,0-.08.02-.1.02l-.08.02c-.68.09-.97-.34-1.37-.89-.47-.69-.88-.82-1.53-.8-.58.18-1.16.67-.97,1.64.02.08.03.16.05.26l.03.14c.13.59.39.94.66,1.22h-.02c.21,0,.47.06.73.09.15.03.31.07.48.08.13.02.24.06.36.1.18.07.36.1.51.13.31.07.62.13.91.35h-.02c1.3-.06,2.22,1.66,2.53,3.29.2,1.06.06,1.84-.22,2.55-.14.7-.58,1.13-1.01,1.52l-.11.11c-.32.29-.92.58-1.33.66-.1.02-.19.01-.27,0-.13-.02-.24-.02-.36-.01-.52-.05-1.03-.08-1.42-.25h.02c-.69-.08-1.21-.51-1.69-1.32-.24-.35-.61-1.1-.7-1.57-.11-.59.13-.95.64-1.05l.21-.02Z" style="fill: #000; stroke-width: 0px;"/>
    <path d="M267.16,461.33c-.7.17-1.23-.21-1.62-1.11l-.83-1.86h.02s-2.93.47-2.93.47l.18,2.37c.07.99-.21,1.55-.92,1.72l-.28.09c-.4.1-.66-.07-.76-.49-.03-.1-.06-.22-.05-.37l-.07-1.05-.38-4c0-.09,0-.19-.01-.3.01-.64.02-1.31,0-1.96-.05-.78-.09-1.56-.13-2.34l-.11-1.98-.1-1c-.08-.66.12-1.07.57-1.23l.84-.3s.08-.02.1-.02c.02,0,.06-.02.08-.02l.63-.12c.49-.08.88.19,1.13.79.14.31.26.62.4.92.31.65.63,1.32.94,1.98l.83,1.89c.28.61.56,1.23.85,1.86.33.62.65,1.25,1,1.88l.85,1.77c.04.08.08.15.1.23l.34.87c.03.1.07.2.09.28.12.5-.03.82-.47.95l-.32.08ZM263.46,455.64h-.04c-.31-.64-.63-1.31-.92-1.96l-.99-2.17c.06.77.12,1.51.16,2.27l.09,2.41h-.04s1.74-.55,1.74-.55Z" style="fill: #000; stroke-width: 0px;"/>
    <path d="M281.74,451.87c.08,1.32.14,2.76-.45,3.72-.33.62-.69,1.21-1.16,1.44h.02c-.39.55-.84.8-1.27.93-.12.04-.24.07-.34.09-.13.06-.26.12-.38.16-1.31.41-1.94.26-3.3-.51-.38-.18-.88-.61-1.42-1.23-.1-.12-.23-.23-.33-.35-.85-.93-1.01-1.22-1.5-2.44-.11-.27-.24-.56-.36-.87-.06-.11-.09-.23-.12-.33-.23-.73-.39-1.59-.46-2.33-.19-1.16,0-2.23.31-3.2.06-.17.11-.34.17-.51.32-1.14,1.55-2.26,2.46-2.55.14-.04.28-.07.43-.09.09-.05.21-.11.3-.14.55-.17,1.13-.07,1.55.04.55.02,1.5.14,2.01.61l.26.22c.35.3.74.64,1.2,1.06.26.27.75.89.88,1.31.12.4-.03.66-.45.79l-.63.2c-.55.17-1.07-.08-1.56-.62-.24-.3-.52-.55-.8-.75h.02c-.82-.19-1.53-.31-2.28-.08-.42.13-.75.45-.97.8-.42.67-.66,1.09-.7,2.08.05.24.08.52.1.79.04.47.1.95.26,1.48.03.1.06.2.09.3.39.92.71,1.6,1.11,2.37.85.99,2.12,1.51,3.07,1.21.06-.02.12-.04.17-.08.69-.21,1.17-.41,1.5-1.23.16-.31.27-.67.32-1.08.1-.73.24-1.25.82-1.47l1.2-.46c.06-.02.15,0,.18.1t0,.07c0,.17.03.36.04.53Z" style="fill: #000; stroke-width: 0px;"/>
    <path d="M288.57,453.67l-.37-.99-.82-2.01-.69-1.95-.57-1.82-.76-2.02-.78-1.96-.34-.91c-.21-.61-.11-1,.33-1.19l.85-.34c.46-.19.94-.4,1.39-.59l1.49-.5c.05-.04.13-.07.19-.09.6-.23,1.18-.11,1.59.16h-.02c.67.15,1.01.51,1.47,1.16.33.34.92,1.2,1.11,1.73.36.95.44,2.29.28,3.15.68.56,1.35,1.29,1.73,2.25.02.06.06.16.09.25.23.6.46,1.22.69,1.84l.36,1.08c.23.73.09,1.18-.43,1.38l-.46.19c-.51.19-.88-.05-1.12-.69-.01-.04-.03-.08-.05-.14l-.35-1.11c-.25-.61-.5-1.21-.75-1.82-.33-.63-.8-1.29-1.12-1.28l-2.55,1.05h.02s1.03,2.5,1.03,2.5l.55,1.47c.35.93.21,1.51-.44,1.76l-.45.15c-.47.16-.85-.08-1.09-.72ZM287.9,445.82l2.79-.94c.17-.08.04-.94-.2-1.83-.27-.61-.76-1.31-1.15-1.23l-2.54.84,1.29,3.32-.2-.17Z" style="fill: #000; stroke-width: 0px;"/>
    <path d="M301.15,448.75l-.42-1.01-.81-1.82-.76-1.97-.84-1.62c-.02-.06-.05-.12-.07-.17l-.76-1.86c-.3-.7-.61-1.41-.89-2.12l-.44-.91c-.23-.53-.15-.86.26-1.06l.87-.38c.46-.24.92-.49,1.37-.73l.08-.03s.06-.03.08-.03l1.36-.45.8-.35c.53-.23.95.01,1.29.75l.06.13c.32.74.2,1.24-.35,1.48l-1.17.53-1.84.75,1.3,3-.04.02,1.47-.62s.08-.01.14-.04l.71-.19c.55-.15.96.13,1.28.82l.12.27c.3.7.2,1.18-.32,1.4l-.79.32-1.56.72h.04s1.15,2.69,1.15,2.69h-.02s2.04-.76,2.04-.76l1.02-.46c.59-.26,1.05.02,1.4.84l.09.21c.3.68.21,1.1-.27,1.31l-.8.3-1.21.75s-.09.06-.14.08l-1.56.56-.75.3c-.48.21-.83,0-1.11-.65Z" style="fill: #000; stroke-width: 0px;"/>
    <path d="M312.27,443.8l-1.45-2.86-.8-1.78-1.95-3.82-.78-1.72-.52-.97c-.27-.56-.2-.92.23-1.13l1.02-.5,1.62-1.03s.07-.04.09-.05c.96-.45,2.82-.23,3.83.89.21.24.44.48.65.72,1.04,1.08,1.45,1.69,2.17,3.14.12.19.2.36.28.53.26.52.39.99.55,1.49.06.22.13.45.22.68.16.52.25.98.32,1.5.03.15.04.33.07.47.12.68-.1,1.87-.31,2.32-.33.55-.7,1.01-1.17,1.24-.07.04-.17.08-.23.09-.56.32-1.12.62-1.67.92l-1.03.48c-.46.2-.81,0-1.14-.62ZM313.5,441.42l1.53-.92c.06-.01.12-.04.16-.05.39-.19.46-.9.33-1.78-.15-.55-.39-1.54-.79-2.36-.08-.17-.19-.34-.28-.48-.11-.27-.21-.52-.34-.78-.4-.82-.89-1.48-1.32-1.94-.56-.62-1.24-.92-1.54-.79-.02.01-.06.03-.06.06l-1.59.71c.15.34.73,1.77.88,2.13l1.98,4.04,1.08,2.05-.04.11Z" style="fill: #000; stroke-width: 0px;"/>
    <path d="M324.99,436.03c.42-.23.81-.02,1.13.52.02.03.05.09.04.12l.23.42c.17.36.26.73.26,1.13l.02,1.52c.02.2-.08.37-.21.44-.07.04-.13.02-.15-.01-.02-.04-.04-.07-.05-.14l-.38-2.1-.59.34c-.42.23-.78.04-1.08-.52l-.02-.04c-.34-.62-.29-1.05.16-1.31l.65-.37Z" style="fill: #000; stroke-width: 0px;"/>
    <path d="M346.33,425.73c-.61.39-1.23.2-1.89-.53l-1.39-1.5h.02s-2.62,1.39-2.62,1.39l.94,2.18c.39.91.3,1.53-.31,1.93l-.23.17c-.35.23-.65.15-.88-.22-.06-.09-.12-.19-.17-.34l-.4-.97-1.65-3.67c-.03-.08-.07-.18-.11-.28-.2-.61-.41-1.24-.63-1.86-.29-.72-.59-1.45-.88-2.17l-.74-1.84-.42-.91c-.29-.6-.24-1.06.14-1.35l.7-.55s.07-.04.09-.05c.02-.01.05-.03.07-.05l.56-.31c.44-.23.89-.11,1.33.38.23.25.45.5.68.75.5.51,1.02,1.04,1.53,1.57l1.4,1.52c.46.49.93.98,1.4,1.49.51.49,1.02.97,1.56,1.46l1.37,1.41c.06.06.13.12.17.19l.61.72c.06.09.13.16.18.23.28.44.24.78-.14,1.05l-.28.18ZM340.99,421.53l-.03.02c-.5-.51-1.02-1.04-1.5-1.57l-1.63-1.73c.31.71.6,1.39.88,2.09l.86,2.25-.03.02,1.46-1.09Z" style="fill: #000; stroke-width: 0px;"/>
    <path d="M358.77,414.44c-.43-.53-.9-1.06-1.34-1.58l-1.28-1.63-1.24-1.68-1.26-1.67-1.8-2.48c-.4-.55-.42-.98-.02-1.29l.5-.33c.44-.31.84-.2,1.26.34.03.03.05.06.08.1l.67.94,1.47,1.74s.05.07.09.12c.03.03.06.08.1.13l1.27,1.85,1.35,1.68,1.53,2.06,1.48-1.37s.04-.06.05-.07l1.04-.72c.52-.34.99-.21,1.48.43.03.03.06.08.1.13l.17.26c.4.55.39.98.01,1.27l-.63.43c-.4.39-.82.76-1.21,1.14l-1.29.97-1.29.87c-.43-.56-.83-1.08-1.26-1.64Z" style="fill: #000; stroke-width: 0px;"/>
    <path d="M368.82,407.85l-.66-.77-1.35-1.54-1.26-1.52-1.23-1.67c-.45-.54-.88-1.1-1.3-1.64l-1.45-1.52s-.11-.1-.15-.15c-.04-.05-.06-.11-.12-.17l-.44-.6c-.36-.5-.37-.93-.03-1.24l.63-.54c.37-.3.74-.21,1.15.29l.66.83,1.33,1.54s.05.06.09.11l1.22,1.6,1.26,1.43,1.33,1.7,2.12,2.52c.42.51.44.92.09,1.21l-.65.48c-.4.3-.8.17-1.23-.35Z" style="fill: #000; stroke-width: 0px;"/>
    <path d="M377.77,401.5c-.37.33-.79.23-1.27-.31l-.76-.82-1.66-1.77s-.07-.08-.1-.11l-1.48-1.84-1.59-1.63s-.06-.06-.08-.09c-.01-.02-.06-.06-.08-.09l-1.37-1.66.03-.03-1.14,1.02c-.45.4-.94.31-1.47-.27l-.11-.12c-.53-.66-.58-1.18-.16-1.61l.62-.61s.05-.04.08-.07l1.29-.95,1.04-1.2s.06-.06.09-.08c.03-.03.08-.07.11-.1l.56-.36c.46-.33.95-.21,1.48.32l.11.09s.08.09.13.14c.48.54.51,1.01.14,1.43l-1,1.06.03-.03,1.34,1.72,1.54,1.51s.1.11.14.15c.03.03.06.06.08.09l1.52,1.83,1.43,1.72.83.87c.47.53.52.98.13,1.36l-.44.45Z" style="fill: #000; stroke-width: 0px;"/>
    <path d="M386.99,392.89c-.35.35-.78.27-1.29-.25l-.8-.78-1.74-1.69s-.07-.07-.1-.1l-1.56-1.77-1.67-1.55s-.06-.06-.09-.09c-.01-.01-.06-.06-.09-.09l-1.45-1.6.03-.03-1.09,1.07c-.43.42-.93.36-1.48-.2l-.12-.12c-.56-.64-.63-1.15-.23-1.6l.59-.64s.04-.04.07-.07l1.24-1.01.98-1.25s.06-.06.09-.09c.03-.03.07-.07.1-.1l.55-.39c.44-.35.94-.26,1.49.25l.12.09s.09.09.13.13c.51.52.56.99.21,1.42l-.95,1.1.03-.03,1.42,1.65,1.61,1.44s.1.1.14.15c.03.03.06.06.09.09l1.61,1.76,1.51,1.66.87.83c.49.5.56.96.19,1.35l-.41.46Z" style="fill: #000; stroke-width: 0px;"/>
    <path d="M392.29,384.67c-.51-.45-1.06-.9-1.59-1.34l-1.53-1.4-1.5-1.45-1.52-1.44-2.19-2.15c-.49-.48-.57-.9-.24-1.27l.44-.41c.38-.38.8-.34,1.3.13l.09.09.82.82,1.74,1.48s.06.06.11.1c.03.03.08.07.12.11l1.55,1.62,1.6,1.44,1.85,1.78,1.23-1.6s.03-.06.04-.07l.91-.88c.45-.43.94-.37,1.53.18.03.03.08.07.12.11l.21.23c.49.48.55.9.22,1.25l-.55.53c-.34.45-.69.89-1.01,1.33l-1.12,1.17-1.13,1.07c-.52-.48-1-.93-1.52-1.41Z" style="fill: #000; stroke-width: 0px;"/>
    <path d="M401.2,376.43l-.82-.73-1.53-1.27-1.56-1.43-1.47-1.08s-.09-.08-.14-.12l-1.5-1.33c-.58-.5-1.17-.99-1.74-1.5l-.8-.63c-.44-.37-.51-.71-.23-1.07l.62-.73c.3-.42.61-.84.91-1.26l.05-.06s.04-.05.05-.06l1.02-1.01.56-.66c.37-.44.86-.41,1.49.1l.11.1c.62.52.73,1.03.34,1.48l-.82.99-1.32,1.49,2.5,2.12-.03.03,1.05-1.2s.07-.05.11-.1l.55-.49c.43-.37.92-.31,1.51.17l.22.19c.58.5.7.97.33,1.4l-.57.64-1.08,1.34.03-.03,2.23,1.92v.02s1.47-1.59,1.47-1.59l.71-.87c.42-.49.95-.45,1.63.13l.17.15c.57.48.68.9.34,1.3l-.58.62-.75,1.21c-.03.06-.05.09-.09.14l-1.15,1.2-.54.6c-.34.39-.75.37-1.29-.09Z" style="fill: #000; stroke-width: 0px;"/>
    <path d="M412.53,356.22c.38-.54.93-.45,1.59-.37.93.16,1.27-.14,1.72-.73.43-.71.26-1.19-.66-1.89l-.08-.06c-.3-.22-.52-.27-.75-.23-.73.17-1.01.38-1.54.81-.25.25-.75.59-1.27.75-.67.26-1.1.44-1.92.34-.69-.14-1.3-.32-2.13-.9-.93-.66-2.25-1.73-2.35-2.74l-.02-.19c-.05-.44-.08-.85-.04-1.27.11-.51.33-.96.51-1.32.04-.1.09-.19.12-.27.04-.05.06-.11.1-.18.54-.76,2.07-1.37,3.34-1.05.49.07,1.28.3,1.74.63.54.38.59.88.27,1.34-.02.03-.05.07-.06.09l-.05.07c-.43.53-.94.43-1.61.3-.82-.17-1.2,0-1.66.47-.3.52-.38,1.28.43,1.86.07.05.14.1.22.16l.12.08c.5.33.93.41,1.32.43v.02c.14-.14.37-.29.58-.44.13-.08.27-.16.4-.28.11-.08.22-.13.33-.17.18-.08.33-.17.46-.26.27-.16.54-.33.9-.37v.02c.89-.94,2.74-.33,4.09.63.88.63,1.32,1.29,1.6,2,.38.6.35,1.22.32,1.8v.15c-.03.44-.27,1.05-.51,1.39-.06.08-.13.14-.19.19-.11.08-.18.15-.27.24-.41.32-.8.65-1.2.8v-.02c-.54.42-1.21.47-2.12.21-.42-.09-1.21-.37-1.59-.65-.49-.35-.56-.78-.26-1.2l.14-.16Z" style="fill: #000; stroke-width: 0px;"/>
    <path d="M424.65,346.84c-.27.42-.7.44-1.31.05l-.95-.59-2.07-1.25c-.05-.03-.09-.05-.12-.08l-1.92-1.38-1.97-1.14s-.07-.04-.11-.07c-.02-.01-.07-.05-.1-.07l-1.77-1.23.02-.03-.83,1.29c-.32.51-.82.56-1.49.13l-.14-.09c-.69-.49-.87-.98-.58-1.51l.43-.76s.03-.05.06-.09l.98-1.26.68-1.44s.04-.07.07-.1c.02-.03.06-.09.08-.12l.45-.5c.35-.44.86-.46,1.51-.09l.13.06c.05.03.1.07.16.1.61.39.77.84.52,1.34l-.68,1.29.02-.03,1.75,1.3,1.89,1.04c.05.03.12.08.17.11.03.02.07.05.1.07l1.96,1.35,1.84,1.28,1.03.61c.59.38.76.81.49,1.27l-.3.55Z" style="fill: #000; stroke-width: 0px;"/>
    <path d="M428.87,338.19l-.92-.52-1.92-1.02-1.78-1.06-1.6-1.03-1.87-1.07-1.86-1.01-.85-.48c-.55-.33-.72-.7-.5-1.12l.43-.8c.23-.44.47-.9.69-1.34l.83-1.34c.01-.06.05-.14.08-.19.32-.56.83-.84,1.32-.89v.02c.6-.32,1.09-.25,1.86-.06.47.05,1.47.34,1.96.62.88.5,1.8,1.48,2.22,2.24.88,0,1.86.13,2.77.63.05.03.14.08.23.13.56.32,1.13.65,1.71.97l.97.6c.64.42.82.85.55,1.34l-.23.44c-.27.47-.71.53-1.3.19-.04-.02-.07-.04-.13-.07l-.98-.63c-.59-.31-1.15-.61-1.74-.92-.65-.28-1.44-.49-1.68-.27l-1.29,2.43v-.02s2.41,1.27,2.41,1.27l1.37.78c.86.49,1.13,1.03.78,1.64l-.25.4c-.26.42-.7.48-1.3.14ZM423.35,332.59l1.55-2.5c.07-.17-.57-.75-1.32-1.28-.6-.29-1.42-.52-1.67-.21l-1.41,2.27,3.11,1.73h-.26Z" style="fill: #000; stroke-width: 0px;"/>
    <path d="M439.69,320.08c-.32.65-.95.8-1.9.51l-1.95-.58v-.02s-1.53,2.54-1.53,2.54l1.92,1.4c.8.58,1.04,1.16.72,1.81l-.11.27c-.19.37-.48.45-.87.26-.09-.05-.2-.1-.32-.2l-.84-.63-3.29-2.31c-.07-.05-.15-.12-.23-.19-.48-.42-.98-.86-1.49-1.27-.62-.47-1.24-.94-1.86-1.41l-1.58-1.2-.83-.57c-.56-.37-.74-.79-.57-1.23l.32-.83s.04-.08.05-.09c0-.02.03-.06.04-.07l.32-.56c.26-.43.71-.55,1.33-.35.33.09.64.2.96.3.69.18,1.41.38,2.12.57l1.97.59c.65.19,1.3.37,1.96.56.69.16,1.37.31,2.08.46l1.9.51c.08.02.17.04.24.07l.89.31c.09.04.2.07.27.11.46.23.6.55.42.97l-.15.3ZM432.96,319.2l-.02.04c-.69-.18-1.41-.38-2.09-.58l-2.29-.66c.63.45,1.22.89,1.83,1.35l1.89,1.5-.02.04.7-1.69Z" style="fill: #000; stroke-width: 0px;"/>
    <path d="M444.67,306.27c.01.07.03.15.06.23.13.39.27.84.14,1.21v-.02c.06.45-.02.75-.12,1.05-.03.12-.05.22-.08.35-.02.1-.05.18-.09.28-.02.04-.03.07-.05.11-.24.42-.5.76-.76,1.1-.06.09-.11.15-.17.24-.31.41-.9.79-1.47.97-.42.18-.85.25-1.28.31-.17.04-.32.07-.49.09-.61.12-1.83.01-2.45-.21-.51-.01-1.07-.18-1.64-.42-.21-.09-.42-.18-.62-.29-.28-.09-.54-.21-.81-.32-.53-.23-1.02-.5-1.4-.89-.72-.33-1.37-.92-1.77-1.5-.43-.47-.73-1.03-.95-1.57-.28-.5-.42-1.08-.21-1.69-.01-.66.15-1.24.3-1.67.09-.25.16-.49.25-.7.15-.36.45-.89.84-1.13l.16-.11c.46-.28.82-.51,1.53-.63.99-.48,1.82-.47,3.09-.28.17.03.33.07.44.12.4.17.53.49.35.91l-.18.47c-.25.59-.8.72-1.51.8-.43.02-.86.11-1.26.21-.76.26-1.18.87-1.44,1.48-.2.46-.15.88.11,1.4.32.68.56,1.16,1.08,1.81.45.37,1.22.79,2.02,1.17.06.03.11.07.16.09.1.04.19.08.29.12.69.29,1.37.38,2.08.45.13.01.23.03.34.05.67.13,1.01,0,1.48-.25.12-.06.2-.1.3-.12.51-.19.66-.44.91-.83.05-.11.12-.22.2-.32.02-.04.04-.1.06-.13.19-.44.24-1,.02-1.59-.16-.52-.37-1.03-.93-1.57l-.71,1.77c-.27.63-.82.76-1.67.39l-.25-.11c-.7-.32-.95-.72-.74-1.21l1.22-2.5.32-.76c.23-.53.68-.65,1.41-.35l1.13.46,2.32.89,1.21.54c.76.32,1.01.74.81,1.27,0,.02-.03.08-.05.11l-.63,1.11.1.04-.02.06-.99-.49Z" style="fill: #000; stroke-width: 0px;"/>
    <path d="M447.68,298.73l-1.03-.39-1.88-.65-1.96-.79-1.76-.49c-.06-.02-.12-.04-.17-.06l-1.88-.71c-.72-.26-1.44-.51-2.16-.79l-.97-.3c-.55-.19-.73-.48-.6-.91l.32-.9c.14-.5.27-1,.4-1.5l.03-.08s.02-.06.03-.08l.6-1.3.29-.82c.19-.54.66-.69,1.43-.44l.14.05c.76.27,1.05.7.85,1.27l-.41,1.22-.71,1.86,3.08,1.1v.04s.54-1.5.54-1.5c.01-.04.05-.07.07-.13l.34-.65c.27-.5.75-.61,1.47-.38l.27.1c.72.26,1,.66.81,1.19l-.3.79-.54,1.63v-.04s2.78,1,2.78,1v.02s.82-2.01.82-2.01l.36-1.06c.22-.61.73-.75,1.57-.45l.21.08c.7.25.95.6.78,1.09l-.32.79-.28,1.4c0,.07-.01.1-.04.16l-.65,1.53-.29.75c-.17.49-.57.61-1.23.38Z" style="fill: #000; stroke-width: 0px;"/>
  </g>
</svg>